<!--?xml version="1.0" standalone="no"?-->
              <svg id="sw-js-blob-svg" viewBox="0 0 100 100" xmlns="http://www.w3.org/2000/svg" version="1.1">
                    <defs> 
                        <linearGradient id="sw-gradient" x1="0" x2="1" y1="1" y2="0">
                            <stop id="stop1" stop-color="rgba(255, 255, 255, 1)" offset="0%"></stop>
                            <stop id="stop2" stop-color="rgba(224, 224, 224, 1)" offset="100%"></stop>
                        </linearGradient>
                    </defs>
                <path fill="url(#sw-gradient)" d="M16.2,-28.1C19.5,-26.1,19.9,-18.9,22.4,-13.3C24.9,-7.8,29.5,-3.9,27.7,-1.1C25.9,1.8,17.5,3.5,14.3,7.9C11.2,12.4,13.3,19.5,11.7,23.6C10.2,27.7,5.1,28.8,-1.3,31.1C-7.8,33.4,-15.6,36.9,-22.2,35.8C-28.8,34.6,-34.3,28.8,-33.9,22C-33.6,15.3,-27.4,7.7,-27.7,-0.1C-27.9,-7.9,-34.6,-15.9,-34,-21C-33.4,-26.1,-25.6,-28.4,-18.7,-28.4C-11.8,-28.4,-5.9,-26.1,0.2,-26.5C6.4,-27,12.8,-30.1,16.2,-28.1Z" width="100%" height="100%" transform="translate(50 50)" stroke-width="0" style="transition: 0.3s;" stroke="url(#sw-gradient)"></path>
              </svg>